<svg width="30" height="30" viewBox="0 0 15 16" fill="none" xmlns="http://www.w3.org/2000/svg">
<path fill-rule="evenodd" clip-rule="evenodd" d="M4.57296 2.51251C6.50268 2.28245 8.4973 2.28245 10.427 2.51251C11.5685 2.64859 12.4903 3.60768 12.6246 4.83232C12.8554 6.93694 12.8554 9.06307 12.6246 11.1677C12.4903 12.3923 11.5685 13.3514 10.427 13.4875C8.4973 13.7176 6.50268 13.7176 4.57296 13.4875C3.43147 13.3514 2.50966 12.3923 2.37538 11.1677C2.14461 9.06307 2.14461 6.93694 2.37538 4.83232C2.50966 3.60768 3.43147 2.64859 4.57296 2.51251ZM10.3229 3.50632C8.46237 3.28452 6.5376 3.28452 4.67709 3.50632C3.96182 3.59159 3.38929 4.19375 3.30653 4.94849C3.08422 6.97592 3.08422 9.02408 3.30653 11.0515C3.38929 11.8063 3.96182 12.4084 4.67709 12.4937C6.53761 12.7155 8.46237 12.7155 10.3229 12.4937C11.0382 12.4084 11.6107 11.8063 11.6934 11.0515C11.9158 9.02408 11.9158 6.97592 11.6934 4.94849C11.6107 4.19375 11.0382 3.59159 10.3229 3.50632Z" fill="white"/>
</svg>
