<svg width="30" height="30" viewBox="0 0 15 16" fill="none" xmlns="http://www.w3.org/2000/svg">
<path d="M4.67712 3.50632C3.96185 3.59159 3.38932 4.19375 3.30656 4.94849C3.08426 6.97592 3.08426 9.02408 3.30656 11.0515C3.38932 11.8063 3.96185 12.4084 4.67712 12.4937C6.53764 12.7155 8.46241 12.7155 10.3229 12.4937C11.0382 12.4084 11.6107 11.8063 11.6935 11.0515C11.8532 9.59475 11.8982 8.12728 11.8284 6.66449C11.8266 6.62672 11.8398 6.58987 11.8649 6.56313L12.5141 5.87061C12.5892 5.79045 12.7176 5.84057 12.7256 5.95361C12.8481 7.69022 12.8145 9.43623 12.6246 11.1677C12.4904 12.3923 11.5685 13.3514 10.4271 13.4875C8.49733 13.7176 6.50271 13.7176 4.57299 13.4875C3.4315 13.3514 2.50969 12.3923 2.37541 11.1677C2.14464 9.06307 2.14464 6.93694 2.37541 4.83232C2.50969 3.60768 3.4315 2.64859 4.57299 2.51251C6.50271 2.28245 8.49733 2.28245 10.4271 2.51251C10.8291 2.56043 11.2039 2.71045 11.5266 2.93821C11.5901 2.98303 11.5964 3.07825 11.5426 3.13568L11.0408 3.67094C10.9997 3.71472 10.936 3.72209 10.8849 3.69284C10.714 3.59518 10.5241 3.5303 10.3229 3.50632C8.46241 3.28452 6.53764 3.28452 4.67712 3.50632Z" fill="white"/>
<path d="M13.457 3.64532C13.6401 3.45006 13.6401 3.13347 13.457 2.93821C13.274 2.74295 12.9772 2.74295 12.7941 2.93821L7.50058 8.58466L5.95703 6.93821C5.77398 6.74295 5.47718 6.74295 5.29412 6.93821C5.11106 7.13347 5.11106 7.45006 5.29412 7.64532L7.16912 9.64532C7.35218 9.84058 7.64898 9.84058 7.83203 9.64532L13.457 3.64532Z" fill="white"/>
</svg>
