<svg width="50" height="45" viewBox="0 0 24 15" fill="none" xmlns="http://www.w3.org/2000/svg">
<path d="M7.53033 4.08146C7.82322 3.8984 7.82322 3.6016 7.53033 3.41854C7.23744 3.23549 6.76256 3.23549 6.46967 3.41854L4.46967 4.66854C4.17678 4.8516 4.17678 5.1484 4.46967 5.33146L6.46967 6.58146C6.76256 6.76451 7.23744 6.76451 7.53033 6.58146C7.82322 6.3984 7.82322 6.1016 7.53033 5.91854L6.81066 5.46875H17C17.4142 5.46875 17.75 5.25888 17.75 5C17.75 4.74112 17.4142 4.53125 17 4.53125H6.81066L7.53033 4.08146Z" fill="white"/>
<path d="M16.4697 8.41854C16.1768 8.6016 16.1768 8.8984 16.4697 9.08146L17.1893 9.53125H7C6.58579 9.53125 6.25 9.74112 6.25 10C6.25 10.2589 6.58579 10.4688 7 10.4688H17.1893L16.4697 10.9185C16.1768 11.1016 16.1768 11.3984 16.4697 11.5815C16.7626 11.7645 17.2374 11.7645 17.5303 11.5815L19.5303 10.3315C19.8232 10.1484 19.8232 9.8516 19.5303 9.66854L17.5303 8.41854C17.2374 8.23549 16.7626 8.23549 16.4697 8.41854Z" fill="white"/>
</svg>
