<svg width="32" height="29" viewBox="0 0 32 29" fill="none" xmlns="http://www.w3.org/2000/svg">
<g filter="url(#filter0_d_125_8)">
<path fill-rule="evenodd" clip-rule="evenodd" d="M12.0194 3.92815C13.6159 3.14086 15.4099 2.84466 17.1747 3.077C18.9395 3.30934 20.5958 4.05979 21.9341 5.23345C23.1707 6.3179 24.0845 7.71866 24.5797 9.2817L25.5003 7.68707C25.7765 7.20878 26.3881 7.0449 26.8664 7.32104C27.3446 7.59718 27.5085 8.20878 27.2324 8.68707L25.1111 12.3613C24.8349 12.8396 24.2233 13.0035 23.745 12.7273L20.0708 10.606C19.5925 10.3299 19.4286 9.71828 19.7048 9.23998C19.9809 8.76169 20.5925 8.59782 21.0708 8.87396L22.6383 9.77894C22.2459 8.60626 21.5489 7.55581 20.6154 6.73713C19.5745 5.82428 18.2863 5.2406 16.9137 5.05989C15.541 4.87918 14.1457 5.10956 12.904 5.7219C11.6623 6.33423 10.63 7.30102 9.93781 8.50001C9.66167 8.9783 9.05008 9.14217 8.57178 8.86603C8.09349 8.58989 7.92962 7.9783 8.20576 7.50001C9.09578 5.95845 10.4229 4.71544 12.0194 3.92815L12.4617 4.82502L12.0194 3.92815ZM6.88892 11.6387C7.16506 11.1604 7.77665 10.9965 8.25494 11.2727L11.9292 13.394C12.4075 13.6701 12.5713 14.2817 12.2952 14.76C12.0191 15.2383 11.4075 15.4022 10.9292 15.1261L9.36169 14.2211C9.75404 15.3937 10.451 16.4442 11.3846 17.2629C12.4255 18.1757 13.7137 18.7594 15.0863 18.9401C16.4589 19.1208 17.8543 18.8905 19.096 18.2781C20.3377 17.6658 21.3699 16.699 22.0622 15.5C22.3383 15.0217 22.9499 14.8578 23.4282 15.134C23.9065 15.4101 24.0704 16.0217 23.7942 16.5C22.9042 18.0416 21.577 19.2846 19.9806 20.0719C18.3841 20.8591 16.5901 21.1553 14.8253 20.923C13.0604 20.6907 11.4042 19.9402 10.0659 18.7666C8.82929 17.6821 7.91551 16.2813 7.42031 14.7183L6.49965 16.3129C6.2235 16.7912 5.61191 16.9551 5.13362 16.679C4.65533 16.4028 4.49145 15.7912 4.7676 15.3129L6.88892 11.6387Z" fill="white"/>
</g>
<defs>
<filter id="filter0_d_125_8" x="0" y="0" width="32" height="32" filterUnits="userSpaceOnUse" color-interpolation-filters="sRGB">
<feFlood flood-opacity="0" result="BackgroundImageFix"/>
<feColorMatrix in="SourceAlpha" type="matrix" values="0 0 0 0 0 0 0 0 0 0 0 0 0 0 0 0 0 0 127 0" result="hardAlpha"/>
<feOffset dy="4"/>
<feGaussianBlur stdDeviation="2"/>
<feComposite in2="hardAlpha" operator="out"/>
<feColorMatrix type="matrix" values="0 0 0 0 0 0 0 0 0 0 0 0 0 0 0 0 0 0 0.25 0"/>
<feBlend mode="normal" in2="BackgroundImageFix" result="effect1_dropShadow_125_8"/>
<feBlend mode="normal" in="SourceGraphic" in2="effect1_dropShadow_125_8" result="shape"/>
</filter>
</defs>
</svg>
