<svg width="24" height="24" viewBox="0 0 24 24" fill="none" xmlns="http://www.w3.org/2000/svg">
<path fill-rule="evenodd" clip-rule="evenodd" d="M10.84 4.08335L10.5751 5.18305C10.173 6.85189 8.45513 7.84367 6.80883 7.35748L5.72482 7.03735C5.24562 7.64237 4.85236 8.31785 4.56305 9.04535L5.38388 9.82557C6.62809 11.0082 6.62809 12.9918 5.38388 14.1744L4.56305 14.9547C4.85236 15.6821 5.24562 16.3576 5.72482 16.9626L6.80884 16.6425C8.45514 16.1563 10.173 17.1481 10.5751 18.8169L10.84 19.9166C11.2183 19.9715 11.6056 20 12 20C12.3944 20 12.7817 19.9715 13.16 19.9166L13.425 18.8169C13.8271 17.1481 15.5449 16.1563 17.1912 16.6425L18.2752 16.9626C18.7544 16.3576 19.1477 15.6821 19.437 14.9547L18.6161 14.1744C17.3719 12.9918 17.3719 11.0082 18.6161 9.82557L19.437 9.04535C19.1477 8.31785 18.7544 7.64237 18.2752 7.03735L17.1912 7.35748C15.5449 7.84367 13.8271 6.85189 13.425 5.18305L13.16 4.08335C12.7817 4.02847 12.3944 4 12 4C11.6056 4 11.2183 4.02847 10.84 4.08335ZM9.8007 2.24285C10.5093 2.08375 11.2455 2 12 2C12.7545 2 13.4907 2.08375 14.1993 2.24285C14.5711 2.32633 14.8632 2.61386 14.9524 2.98431L15.3693 4.71457C15.5033 5.27085 16.076 5.60144 16.6247 5.43938L18.3296 4.9359C18.6946 4.8281 19.0892 4.93685 19.3474 5.21643C20.3419 6.29309 21.1034 7.58996 21.5503 9.02688C21.6634 9.39033 21.5603 9.78644 21.2844 10.0487L19.994 11.2752C19.5793 11.6694 19.5793 12.3306 19.994 12.7248L21.2844 13.9513C21.5603 14.2136 21.6634 14.6097 21.5503 14.9731C21.1034 16.41 20.3419 17.7069 19.3474 18.7836C19.0892 19.0631 18.6946 19.1719 18.3296 19.0641L16.6247 18.5606C16.076 18.3986 15.5033 18.7292 15.3693 19.2854L14.9524 21.0157C14.8632 21.3861 14.5711 21.6737 14.1993 21.7572C13.4907 21.9163 12.7545 22 12 22C11.2455 22 10.5093 21.9163 9.8007 21.7572C9.4289 21.6737 9.13686 21.3861 9.0476 21.0157L8.6307 19.2854C8.49667 18.7292 7.92406 18.3986 7.37529 18.5606L5.67043 19.0641C5.30542 19.1719 4.91086 19.0631 4.65262 18.7836C3.65814 17.7069 2.89658 16.41 2.44969 14.9731C2.33665 14.6097 2.43974 14.2136 2.71562 13.9513L4.00598 12.7248C4.42072 12.3306 4.42072 11.6694 4.00598 11.2752L2.71562 10.0487C2.43974 9.78644 2.33665 9.39033 2.44969 9.02688C2.89658 7.58997 3.65813 6.2931 4.65262 5.21643C4.91086 4.93685 5.30542 4.8281 5.67043 4.9359L7.37529 5.43938C7.92406 5.60144 8.49667 5.27085 8.6307 4.71457L9.0476 2.98431C9.13686 2.61386 9.4289 2.32633 9.8007 2.24285ZM12 10C10.8954 10 10 10.8954 10 12C10 13.1046 10.8954 14 12 14C13.1046 14 14 13.1046 14 12C14 10.8954 13.1046 10 12 10ZM8.00001 12C8.00001 9.79086 9.79087 8 12 8C14.2091 8 16 9.79086 16 12C16 14.2091 14.2091 16 12 16C9.79087 16 8.00001 14.2091 8.00001 12Z" fill="white"/>
</svg>
